<svg width="100" height="66" viewBox="0 0 100 66" fill="none" xmlns="http://www.w3.org/2000/svg">
<g clip-path="url(#clip0_3_333)">
<path d="M1.56764 1.03598H6.42476C9.56003 1.03598 11.6776 1.17989 12.7776 1.46772C13.8877 1.75555 14.7307 2.22841 15.3063 2.88631C15.882 3.5442 16.2418 4.27919 16.3857 5.09128C16.5296 5.89309 16.6016 7.47615 16.6016 9.84046V18.5833C16.6016 20.8242 16.4936 22.325 16.2778 23.0857C16.0722 23.8361 15.7072 24.4272 15.183 24.859C14.6587 25.2804 14.0111 25.5785 13.2401 25.7533C12.4692 25.9178 11.3076 26 9.75535 26H1.56764V1.03598ZM8.05921 5.30715V21.7288C8.99466 21.7288 9.57031 21.5438 9.78619 21.1737C10.0021 20.7934 10.11 19.7706 10.11 18.1053V8.40646C10.11 7.2757 10.074 6.55099 10.0021 6.23232C9.9301 5.91365 9.76563 5.68236 9.50864 5.53845C9.25165 5.38425 8.76851 5.30715 8.05921 5.30715ZM33.7788 1.03598V17.7198C33.7788 19.6112 33.7171 20.9424 33.5938 21.7134C33.4704 22.4741 33.1055 23.2605 32.499 24.0726C31.8925 24.8744 31.0907 25.486 30.0935 25.9075C29.1067 26.3187 27.94 26.5243 26.5933 26.5243C25.1028 26.5243 23.787 26.2775 22.646 25.7841C21.5049 25.2907 20.6517 24.6482 20.0863 23.8567C19.521 23.0652 19.1869 22.2325 19.0841 21.3588C18.9813 20.4747 18.9299 18.6244 18.9299 15.8078V1.03598H25.4215V19.7551C25.4215 20.8448 25.478 21.5438 25.5911 21.8522C25.7144 22.1503 25.956 22.2993 26.3158 22.2993C26.727 22.2993 26.9891 22.1349 27.1022 21.8059C27.2255 21.4667 27.2872 20.6752 27.2872 19.4313V1.03598H33.7788ZM50.7864 1.03598V26H45.0966L41.7198 14.6513V26H36.2921V1.03598H41.7198L45.3588 12.2767V1.03598H50.7864ZM53.4077 1.03598H58.2648C61.4001 1.03598 63.5177 1.17989 64.6176 1.46772C65.7278 1.75555 66.5707 2.22841 67.1464 2.88631C67.722 3.5442 68.0818 4.27919 68.2257 5.09128C68.3697 5.89309 68.4416 7.47615 68.4416 9.84046V18.5833C68.4416 20.8242 68.3337 22.325 68.1178 23.0857C67.9122 23.8361 67.5473 24.4272 67.023 24.859C66.4988 25.2804 65.8512 25.5785 65.0802 25.7533C64.3092 25.9178 63.1476 26 61.5954 26H53.4077V1.03598ZM59.8993 5.30715V21.7288C60.8347 21.7288 61.4104 21.5438 61.6262 21.1737C61.8421 20.7934 61.95 19.7706 61.95 18.1053V8.40646C61.95 7.2757 61.9141 6.55099 61.8421 6.23232C61.7702 5.91365 61.6057 5.68236 61.3487 5.53845C61.0917 5.38425 60.6086 5.30715 59.8993 5.30715ZM70.8625 1.03598H81.6869V6.03187H77.354V10.7656H81.4093V15.5148H77.354V21.0041H82.1186V26H70.8625V1.03598ZM83.9998 1.03598H88.5948C91.6581 1.03598 93.7294 1.15419 94.8088 1.39063C95.8984 1.62706 96.7825 2.23355 97.4609 3.21012C98.1497 4.1764 98.494 5.72348 98.494 7.85136C98.494 9.7942 98.2525 11.0997 97.7693 11.7679C97.2862 12.4361 96.3353 12.837 94.9167 12.9706C96.2017 13.2893 97.0652 13.7159 97.5072 14.2504C97.9492 14.785 98.2216 15.2784 98.3244 15.7307C98.4375 16.1727 98.494 17.4011 98.494 19.4159V26H92.465V17.7044C92.465 16.368 92.3571 15.5405 92.1412 15.2218C91.9356 14.9032 91.3857 14.7438 90.4914 14.7438V26H83.9998V1.03598ZM90.4914 5.30715V10.8581C91.2212 10.8581 91.7301 10.7605 92.0179 10.5652C92.316 10.3596 92.465 9.70683 92.465 8.60691V7.23458C92.465 6.44305 92.3211 5.92393 92.0333 5.67722C91.7558 5.43051 91.2418 5.30715 90.4914 5.30715ZM22.2562 29.036V54H16.5818V37.1466L14.3152 54H10.2907L7.9007 37.5321V54H2.22636V29.036H10.6299C10.8766 30.5368 11.1388 32.3049 11.4163 34.3403L12.3107 40.6931L13.7909 29.036H22.2562ZM31.8536 29.036V54H25.3621V29.036H31.8536ZM34.9595 29.036H45.9535V34.0319H41.4511V38.7656H45.4601V43.5148H41.4511V54H34.9595V29.036ZM48.0417 29.036H59.0358V34.0319H54.5333V38.7656H58.5424V43.5148H54.5333V54H48.0417V29.036ZM67.6155 29.036V49.0041H71.5629V54H61.124V29.036H67.6155ZM80.1427 29.036V54H73.6511V29.036H80.1427ZM97.7428 29.036V54H92.053L88.6762 42.6513V54H83.2486V29.036H88.6762L92.3152 40.2767V29.036H97.7428Z" fill="white"/>
<path d="M2.69975 61.9402V64.76H1.65187V57.8161H2.83916C3.42082 57.8161 3.86006 57.8566 4.15688 57.9376C4.4567 58.0185 4.72054 58.1714 4.94841 58.3963C5.34717 58.7861 5.54655 59.2778 5.54655 59.8714C5.54655 60.507 5.33368 61.0107 4.90793 61.3825C4.48219 61.7543 3.90803 61.9402 3.18546 61.9402H2.69975ZM2.69975 60.9688H3.09101C4.05344 60.9688 4.53465 60.5985 4.53465 59.8579C4.53465 59.1413 4.03845 58.7831 3.04604 58.7831H2.69975V60.9688ZM11.837 63.0735H8.8643L8.09076 64.76H6.96193L10.3979 57.3799L13.7124 64.76H12.5656L11.837 63.0735ZM11.4098 62.0886L10.3799 59.7275L9.30054 62.0886H11.4098ZM17.2775 61.9402V64.76H16.2296V57.8161H17.4169C17.9986 57.8161 18.4378 57.8566 18.7346 57.9376C19.0345 58.0185 19.2983 58.1714 19.5262 58.3963C19.9249 58.7861 20.1243 59.2778 20.1243 59.8714C20.1243 60.507 19.9114 61.0107 19.4857 61.3825C19.06 61.7543 18.4858 61.9402 17.7632 61.9402H17.2775ZM17.2775 60.9688H17.6688C18.6312 60.9688 19.1124 60.5985 19.1124 59.8579C19.1124 59.1413 18.6162 58.7831 17.6238 58.7831H17.2775V60.9688ZM26.6801 58.8011H23.8963V60.4696H26.5992V61.4545H23.8963V63.7751H26.6801V64.76H22.8484V57.8161H26.6801V58.8011ZM32.0532 61.8008L34.2029 64.76H32.9211L30.9378 61.9177H30.7489V64.76H29.7011V57.8161H30.9288C31.8463 57.8161 32.5089 57.9885 32.9166 58.3333C33.3664 58.7171 33.5912 59.2238 33.5912 59.8534C33.5912 60.3451 33.4503 60.7679 33.1685 61.1217C32.8867 61.4755 32.5149 61.7018 32.0532 61.8008ZM30.7489 61.0047H31.0817C32.0741 61.0047 32.5704 60.6255 32.5704 59.8669C32.5704 59.1563 32.0876 58.8011 31.1222 58.8011H30.7489V61.0047ZM46.514 58.1894V59.4307C45.9084 58.924 45.2817 58.6706 44.6341 58.6706C43.9205 58.6706 43.3194 58.927 42.8307 59.4397C42.339 59.9494 42.0931 60.573 42.0931 61.3106C42.0931 62.0391 42.339 62.6538 42.8307 63.1545C43.3224 63.6552 43.925 63.9055 44.6386 63.9055C45.0074 63.9055 45.3207 63.8456 45.5785 63.7256C45.7225 63.6657 45.8709 63.5847 46.0238 63.4828C46.1797 63.3808 46.3431 63.2579 46.514 63.114V64.3777C45.9143 64.7165 45.2847 64.8859 44.6251 64.8859C43.6327 64.8859 42.7857 64.5396 42.0841 63.8471C41.3855 63.1485 41.0362 62.306 41.0362 61.3196C41.0362 60.4351 41.3286 59.6465 41.9132 58.954C42.6328 58.1055 43.5637 57.6812 44.7061 57.6812C45.3297 57.6812 45.9323 57.8506 46.514 58.1894ZM49.0942 61.2566C49.0942 60.2792 49.4525 59.4397 50.169 58.7381C50.8826 58.0365 51.7401 57.6857 52.7415 57.6857C53.7309 57.6857 54.5794 58.0395 55.287 58.7471C55.9976 59.4547 56.3529 60.3047 56.3529 61.2971C56.3529 62.2955 55.9961 63.1425 55.2825 63.8381C54.5659 64.5366 53.7009 64.8859 52.6875 64.8859C51.7911 64.8859 50.9861 64.5756 50.2725 63.955C49.4869 63.2684 49.0942 62.3689 49.0942 61.2566ZM50.151 61.2701C50.151 62.0376 50.4089 62.6688 50.9246 63.1635C51.4373 63.6582 52.0294 63.9055 52.701 63.9055C53.4296 63.9055 54.0442 63.6537 54.5449 63.15C55.0456 62.6403 55.296 62.0196 55.296 61.2881C55.296 60.5475 55.0486 59.9269 54.5539 59.4262C54.0622 58.9225 53.4536 58.6706 52.728 58.6706C52.0054 58.6706 51.3953 58.9225 50.8976 59.4262C50.3999 59.9239 50.151 60.5385 50.151 61.2701ZM59.0725 64.76L60.5341 57.2944L62.9177 62.6912L65.3867 57.2944L66.6999 64.76H65.6251L64.955 60.5685L62.8997 65.0793L60.9029 60.564L60.1563 64.76H59.0725ZM70.8677 61.9402V64.76H69.8198V57.8161H71.0071C71.5887 57.8161 72.028 57.8566 72.3248 57.9376C72.6246 58.0185 72.8885 58.1714 73.1163 58.3963C73.5151 58.7861 73.7145 59.2778 73.7145 59.8714C73.7145 60.507 73.5016 61.0107 73.0758 61.3825C72.6501 61.7543 72.0759 61.9402 71.3534 61.9402H70.8677ZM70.8677 60.9688H71.2589C72.2214 60.9688 72.7026 60.5985 72.7026 59.8579C72.7026 59.1413 72.2064 58.7831 71.214 58.7831H70.8677V60.9688ZM80.0049 63.0735H77.0322L76.2587 64.76H75.1298L78.5658 57.3799L81.8803 64.76H80.7335L80.0049 63.0735ZM79.5777 62.0886L78.5478 59.7275L77.4685 62.0886H79.5777ZM84.3975 64.76V57.3439L89.4615 62.6418V57.8161H90.5094V65.1828L85.4454 59.8984V64.76H84.3975ZM95.2258 61.7603L92.9592 57.8161H94.1645L95.752 60.591L97.3441 57.8161H98.5494L96.2737 61.7603V64.76H95.2258V61.7603Z" fill="white"/>
</g>
<defs>
<clipPath id="clip0_3_333">
<rect width="100" height="66" fill="white"/>
</clipPath>
</defs>
</svg>
